<svg xmlns="http://www.w3.org/2000/svg" width="221" height="21" fill="none"><path fill="#000" d="M206.71 20.655v-16h-6c-1.125 0-2.073-.385-2.844-1.156A3.932 3.932 0 0 1 196.71.655h24c0 1.125-.396 2.073-1.188 2.844-.791.77-1.729 1.156-2.812 1.156h-6v16h-4Zm-34.01 0v-16l-4-4h6l14.001 14v-14h4v20h-4l-12.001-12v12h-4Z"/><path fill="#09E2AB" d="M144.706 20.655c-1.125 0-2.072-.385-2.844-1.156a3.932 3.932 0 0 1-1.156-2.844h24c0 1.125-.396 2.073-1.186 2.844-.793.771-1.731 1.156-2.813 1.156h-16.001Zm0-8c-1.125 0-2.072-.385-2.844-1.156a3.932 3.932 0 0 1-1.156-2.844h24c0 1.125-.396 2.073-1.186 2.844-.793.77-1.731 1.156-2.813 1.156h-16.001Zm0-8c-1.125 0-2.072-.385-2.844-1.156a3.932 3.932 0 0 1-1.156-2.844h24c0 1.125-.396 2.073-1.186 2.844-.793.77-1.731 1.156-2.813 1.156h-16.001Z"/><path fill="#000" d="M112.712 20.655v-20h4v8h16c0 1.125-.396 2.073-1.188 2.844-.791.77-1.729 1.156-2.812 1.156h-12v8h-4Zm20 0v-20h4v20h-4Zm-48.01 0c0-1.104.386-2.041 1.156-2.812.792-.792 1.74-1.188 2.844-1.188h16v-4h-20v-12h24c0 1.125-.396 2.073-1.187 2.844-.791.77-1.73 1.156-2.813 1.156h-16v4h20v12h-24Z"/><path fill="#09E2AB" d="M60.71 20.655c-1.126 0-2.074-.385-2.844-1.156a3.932 3.932 0 0 1-1.157-2.844h24c0 1.125-.395 2.073-1.187 2.844-.792.771-1.73 1.156-2.813 1.156h-16Zm0-8c-1.126 0-2.074-.385-2.844-1.156a3.933 3.933 0 0 1-1.157-2.844h24c0 1.125-.395 2.073-1.187 2.844-.792.77-1.73 1.156-2.813 1.156h-16Zm0-8c-1.126 0-2.074-.385-2.844-1.156A3.932 3.932 0 0 1 56.709.655h24c0 1.125-.395 2.073-1.187 2.844-.792.77-1.73 1.156-2.813 1.156h-16Z"/><path fill="#000" d="M28.7 20.655v-12h18a1.976 1.976 0 0 0 2-2v-2h-16c-1.125 0-2.073-.385-2.844-1.156A3.933 3.933 0 0 1 28.7.655h24v8c0 1.125-.396 2.073-1.187 2.844-.792.77-1.73 1.156-2.813 1.156h-4l8 8h-6l-8-8h-6v8h-4Zm-27.994 0v-12h18a1.976 1.976 0 0 0 2-2v-2h-20v-4h24v8c0 1.125-.396 2.073-1.188 2.844-.792.77-1.73 1.156-2.812 1.156h-16v8h-4Z"/></svg>