<svg xmlns="http://www.w3.org/2000/svg" width="216" height="60" fill="none"><path fill="#000" d="M98.135 38.667H90.45l-4.882-8.02-4.857 8.02h-7.686l6.785-11.183h3.83L73 10h7.686l4.857 8.02L90.399 10h7.686l-6.359 10.46H87.07l11.065 18.207Zm3.08-6.475v6.475h19.327l-3.931-6.475h-3.129v-16.29L109.902 10h-8.662v6.476h5.733v15.716h-5.758Zm-20.93 16.19h-4.781L74.802 50h-1.777l3.53-8.095h2.679L82.764 50h-1.778l-.7-1.619Zm-.7-1.62-1.428-3.238h-.55l-1.427 3.238h3.404Zm6.233-4.857V50h8.136v-4.857H90.7v1.62h1.627v1.618h-4.882v-4.857h6.51v-1.619h-8.137ZM123.071 50h8.136v-2.44h-1.627v.796h-4.882V43.5h4.882v.797h1.627v-2.44h-8.136V50Zm-16.724-6.476v-1.619h-8.136V50h8.136v-1.619h-6.51v-1.619h4.883v-1.619h-4.882v-1.619h6.509Zm10.79-1.619v5.63l-4.857-5.63h-1.652V50h1.627v-5.629L117.112 50h1.652v-8.095h-1.627Zm24.76 0-2.654 3.288-2.653-3.288h-2.078l3.93 4.857V50h1.627v-3.238L144 41.905h-2.103ZM138.818 10 144 18.518v20.15h-18.251l-5.182-8.519V10h18.251Zm-1.352 10.311-2.328-3.835h-8.062v11.88l2.328 3.836h8.062v-11.88Z"/></svg>