<svg xmlns="http://www.w3.org/2000/svg" width="216" height="60" fill="none"><g opacity=".8"><path fill="#3B3B3B" d="M73.363 33.016c0 .28-.237.517-.533.517h-9.822c.251 2.424 2.074 4.642 4.651 4.642 1.763 0 3.067-.666 4.045-2.07.104-.148.252-.251.43-.251.28 0 .488.207.488.488 0 .103-.03.177-.074.25-.992 1.715-2.963 2.558-4.889 2.558-3.303 0-5.674-2.956-5.674-6.105 0-3.163 2.356-6.105 5.674-6.105 3.304 0 5.69 2.927 5.704 6.076Zm-1.052-.459c-.207-2.424-2.074-4.641-4.652-4.641-2.577 0-4.4 2.217-4.652 4.641h9.304Zm12.993-5.38c.281 0 .489.251.489.488 0 .28-.208.487-.49.487h-2.636v10.333a.493.493 0 0 1-.49.488.502.502 0 0 1-.488-.488V28.152h-2.533a.474.474 0 0 1-.49-.488c0-.25.208-.487.49-.487h2.533v-3.77c0-.251.193-.488.444-.517a.483.483 0 0 1 .549.488v3.799h2.622Zm16.074 4.996v6.253c0 .28-.252.487-.489.487a.475.475 0 0 1-.489-.487v-6.253c0-2.114-1.2-4.213-3.555-4.213-3.023 0-4.326 2.631-4.148 5.336 0 .074.03.385.03.429v4.686a.525.525 0 0 1-.445.517.483.483 0 0 1-.548-.487V17.878c0-.252.207-.488.488-.488.282 0 .49.251.49.488v11.618c.844-1.507 2.355-2.527 4.118-2.527 2.904 0 4.548 2.527 4.548 5.203Zm17.644.843c0 .28-.237.517-.533.517h-9.822c.252 2.424 2.074 4.642 4.652 4.642 1.763 0 3.066-.666 4.044-2.07.104-.148.252-.251.43-.251.281 0 .489.207.489.488a.46.46 0 0 1-.074.25c-.993 1.715-2.963 2.558-4.889 2.558-3.304 0-5.674-2.956-5.674-6.105 0-3.163 2.355-6.105 5.674-6.105 3.289 0 5.689 2.927 5.703 6.076Zm-1.066-.459c-.208-2.424-2.074-4.641-4.652-4.641-2.578 0-4.4 2.217-4.652 4.641h9.304Zm13.141-4.922c0 .31-.178.488-.46.532-2.889.429-4.193 2.78-4.193 5.514v4.686a.525.525 0 0 1-.444.517.482.482 0 0 1-.547-.488V27.71c0-.251.191-.488.443-.517a.483.483 0 0 1 .548.487v2.173c.815-1.375 2.43-2.675 4.119-2.675.252 0 .534.177.534.458Zm16.148 5.381c0 .28-.237.517-.534.517h-9.822c.252 2.424 2.075 4.642 4.652 4.642 1.763 0 3.066-.666 4.045-2.07.103-.148.251-.251.429-.251.282 0 .489.207.489.488a.46.46 0 0 1-.074.25c-.993 1.715-2.963 2.558-4.889 2.558-3.304 0-5.674-2.956-5.674-6.105 0-3.163 2.356-6.105 5.674-6.105 3.304 0 5.688 2.927 5.704 6.076Zm-1.052-.459c-.207-2.424-2.074-4.641-4.652-4.641-2.577 0-4.4 2.217-4.652 4.641h9.304Zm16.934-4.804v10.732c0 .28-.252.488-.49.488a.474.474 0 0 1-.489-.488v-2.04c-.814 1.611-2.251 2.779-4.089 2.779-2.918 0-4.533-2.528-4.533-5.203v-6.283c0-.251.207-.487.489-.487.282 0 .489.25.489.487v6.283c0 2.114 1.201 4.212 3.555 4.212 3.305 0 4.089-3.089 4.089-6.503v-4.006c0-.296.312-.592.668-.459a.54.54 0 0 1 .311.488ZM188 32.129v6.282c0 .28-.251.488-.489.488a.474.474 0 0 1-.488-.488v-6.282c0-2.114-1.2-4.184-3.556-4.184-2.963 0-4.089 3.164-4.089 5.617v4.849c0 .28-.252.488-.489.488a.474.474 0 0 1-.488-.488v-6.282c0-2.114-1.2-4.184-3.556-4.184-2.993 0-4.223 2.35-4.119 5.484 0 .074.03.207 0 .252v4.715a.524.524 0 0 1-.444.518.483.483 0 0 1-.548-.488V27.709c0-.251.193-.488.445-.517a.482.482 0 0 1 .547.487v1.789c.845-1.508 2.356-2.498 4.119-2.498 2 0 3.556 1.271 4.192 3.119.815-1.833 2.401-3.12 4.43-3.12 2.889 0 4.533 2.499 4.533 5.16Z"/><path fill="#000" d="M40.296 24.797 28 30.37l12.296 7.257 12.312-7.257-12.312-5.573Z"/><path fill="#000" d="m28 30.37 12.296 7.257V10L28 30.37ZM40.296 10v27.627l12.312-7.257L40.296 10ZM28 32.705 40.296 50V39.948L28 32.705Zm12.296 7.243V50l12.312-17.295-12.312 7.243Z"/></g></svg>