<svg xmlns="http://www.w3.org/2000/svg" width="216" height="60" fill="none"><path fill="#252F3E" d="M77.116 11.84c-.125 0-.187-.062-.187-.188V3.154c0-.125.062-.188.187-.188h.236c.133 0 .204.063.212.188l.05.513c.34-.275.689-.492 1.046-.65.365-.16.76-.238 1.183-.238.822 0 1.46.296 1.917.888.457.584.685 1.373.685 2.366 0 .659-.108 1.243-.324 1.752-.215.509-.527.905-.933 1.189-.399.284-.885.426-1.457.426-.407 0-.785-.076-1.133-.226-.34-.15-.66-.359-.96-.626v3.104c0 .126-.062.188-.186.188h-.336Zm2.54-3.091c.664 0 1.17-.217 1.52-.651.356-.434.534-1.106.534-2.015 0-.918-.174-1.59-.522-2.015-.35-.426-.843-.639-1.482-.639a2.85 2.85 0 0 0-1.046.2 4.397 4.397 0 0 0-1.021.601v3.668c.323.283.647.496.97.638.325.142.673.213 1.047.213Zm6.976.701c-.905 0-1.615-.292-2.13-.877-.506-.584-.759-1.405-.759-2.465 0-1.06.253-1.878.76-2.453.514-.584 1.224-.876 2.13-.876.904 0 1.61.292 2.116.876.515.575.772 1.393.772 2.453 0 1.06-.257 1.881-.772 2.465-.506.585-1.212.877-2.117.877Zm0-.651c1.436 0 2.154-.897 2.154-2.691 0-1.786-.718-2.679-2.154-2.679s-2.154.893-2.154 2.679c0 1.794.718 2.69 2.154 2.69Zm6.405.463h-.41c-.117 0-.196-.059-.237-.175l-1.98-5.82a.692.692 0 0 1-.05-.188c0-.075.05-.113.15-.113h.398c.108 0 .178.055.211.163l1.706 5.307 1.507-5.294c.042-.117.12-.176.237-.176h.46c.117 0 .195.059.237.176l1.494 5.331 1.743-5.344c.034-.108.104-.163.212-.163h.374c.1 0 .15.038.15.113a.692.692 0 0 1-.05.188l-2.03 5.82c-.042.116-.12.175-.237.175h-.41c-.117 0-.196-.059-.237-.175l-1.507-5.32-1.494 5.32c-.042.116-.12.175-.237.175Zm10.014.188c-1.984 0-2.977-1.118-2.977-3.355 0-1.051.25-1.865.748-2.44.506-.584 1.212-.876 2.116-.876.756 0 1.333.217 1.731.65.407.426.61 1.048.61 1.865 0 .117-.004.25-.012.4a3.101 3.101 0 0 1-.037.351c-.025.125-.096.188-.212.188h-4.221c.016.884.207 1.535.573 1.952.373.41.95.614 1.73.614.316 0 .606-.025.872-.075.266-.05.544-.13.834-.238a.77.77 0 0 1 .224-.063c.083 0 .125.05.125.15v.188c0 .134-.046.221-.137.263a4.534 4.534 0 0 1-.809.288c-.308.092-.694.138-1.158.138Zm-2.254-3.793h3.785c.008-.092.013-.167.013-.225v-.188c0-1.218-.573-1.827-1.719-1.827-1.311 0-2.005.747-2.079 2.24Zm6.569 3.605h-.336c-.125 0-.187-.063-.187-.188v-5.92c0-.125.062-.188.187-.188h.237c.132 0 .203.063.211.188l.063.726a3.52 3.52 0 0 1 .871-.713c.299-.167.66-.25 1.084-.25h.161c.05 0 .104.003.162.012.092.008.146.033.162.075a.329.329 0 0 1 .025.125v.313c0 .092-.046.138-.137.138h-.199a1.713 1.713 0 0 0-.249-.013c-.407 0-.756.08-1.046.238-.291.15-.565.371-.822.663v4.606c0 .125-.062.188-.187.188Zm6.288.188c-1.984 0-2.976-1.118-2.976-3.355 0-1.051.249-1.865.747-2.44.507-.584 1.212-.876 2.117-.876.756 0 1.333.217 1.731.65.407.426.61 1.048.61 1.865 0 .117-.004.25-.012.4a2.859 2.859 0 0 1-.038.351c-.024.125-.095.188-.211.188h-4.221c.016.884.207 1.535.572 1.952.374.41.951.614 1.731.614.316 0 .606-.025.872-.075.265-.05.544-.13.834-.238a.77.77 0 0 1 .224-.063c.083 0 .125.05.125.15v.188c0 .134-.046.221-.137.263a4.518 4.518 0 0 1-.81.288c-.307.092-.693.138-1.158.138Zm-2.253-3.793h3.785c.008-.092.012-.167.012-.225v-.188c0-1.218-.572-1.827-1.718-1.827-1.312 0-2.005.747-2.079 2.24Zm8.387 3.743c-.822 0-1.474-.288-1.955-.864-.473-.584-.71-1.381-.71-2.39 0-1.044.241-1.866.722-2.466.482-.601 1.138-.901 1.968-.901.772 0 1.469.275 2.092.826V.188c0-.125.062-.188.187-.188h.336c.124 0 .187.063.187.188v8.886c0 .125-.063.188-.187.188h-.262c-.124 0-.195-.063-.211-.188l-.05-.513a3.748 3.748 0 0 1-1.021.613c-.374.15-.739.226-1.096.226Zm.162-.651c.622 0 1.274-.267 1.955-.801V4.243c-.656-.542-1.328-.814-2.017-.814-.664 0-1.171.23-1.52.689-.34.45-.51 1.114-.51 1.99 0 1.76.697 2.64 2.092 2.64Zm10.671.651c-.763 0-1.465-.288-2.104-.864l-.05.538c-.008.125-.079.188-.211.188h-.249c-.125 0-.187-.063-.187-.188V.188c0-.125.062-.188.187-.188h.336c.124 0 .187.063.187.188v3.454c.722-.576 1.456-.863 2.204-.863.813 0 1.448.292 1.905.876.465.575.697 1.368.697 2.378 0 .684-.112 1.28-.336 1.79-.224.5-.54.888-.947 1.164-.398.275-.875.413-1.432.413Zm-.074-.651c1.369 0 2.054-.889 2.054-2.666 0-1.77-.668-2.654-2.004-2.654-.689 0-1.378.267-2.067.801v3.668c.647.567 1.319.85 2.017.85Zm4.635 3.241c-.108 0-.203-.008-.286-.025a1.81 1.81 0 0 1-.287-.062c-.124-.034-.187-.117-.187-.25v-.176c0-.108.05-.162.15-.162.075 0 .145.004.212.012.066.017.182.025.348.025.274 0 .49-.07.648-.213.166-.142.323-.396.473-.763l.423-1.052-2.453-6.057a.619.619 0 0 1-.05-.163c0-.092.05-.138.15-.138h.398c.108 0 .179.055.212.163l2.079 5.382 2.105-5.382c.033-.108.104-.163.212-.163h.373c.1 0 .15.046.15.138 0 .025-.017.08-.05.163l-2.939 7.322c-.208.509-.44.867-.697 1.076-.249.217-.577.325-.984.325ZM92.29 32.44c0 .891.096 1.613.264 2.143.191.53.43 1.107.766 1.733.12.192.168.385.168.553 0 .241-.144.482-.455.723l-1.509 1.01c-.216.145-.431.217-.623.217-.24 0-.478-.12-.718-.337a7.446 7.446 0 0 1-.862-1.131 18.69 18.69 0 0 1-.742-1.42c-1.868 2.214-4.215 3.321-7.04 3.321-2.012 0-3.617-.577-4.79-1.733-1.173-1.155-1.772-2.695-1.772-4.621 0-2.046.718-3.707 2.18-4.958 1.46-1.252 3.4-1.878 5.866-1.878.814 0 1.652.072 2.538.193.886.12 1.796.313 2.754.53v-1.758c0-1.829-.383-3.105-1.125-3.85-.767-.747-2.06-1.108-3.904-1.108-.838 0-1.7.096-2.586.313a18.91 18.91 0 0 0-2.586.818c-.383.169-.67.265-.838.313a1.464 1.464 0 0 1-.383.072c-.335 0-.503-.24-.503-.746v-1.18c0-.384.048-.673.168-.842.12-.168.335-.337.67-.505.838-.433 1.844-.794 3.017-1.083 1.174-.313 2.419-.457 3.736-.457 2.85 0 4.933.65 6.274 1.95 1.317 1.299 1.987 3.272 1.987 5.92v7.799h.048Zm-9.722 3.66c.79 0 1.605-.145 2.466-.434.863-.289 1.629-.818 2.275-1.54.384-.458.67-.963.815-1.541a8.72 8.72 0 0 0 .24-2.094v-1.01a19.91 19.91 0 0 0-2.204-.41 17.949 17.949 0 0 0-2.251-.145c-1.604 0-2.778.313-3.568.963-.79.65-1.173 1.565-1.173 2.768 0 1.132.287 1.974.886 2.552.574.601 1.412.89 2.514.89Zm19.229 2.599c-.431 0-.718-.073-.91-.241-.191-.145-.359-.481-.503-.939l-5.627-18.605c-.144-.482-.216-.795-.216-.963 0-.385.192-.602.575-.602h2.347c.455 0 .766.072.934.24.191.145.335.482.479.94l4.023 15.933 3.735-15.933c.12-.482.264-.795.455-.94.192-.144.527-.24.958-.24h1.916c.455 0 .766.072.958.24.191.145.359.482.455.94l3.783 16.126 4.143-16.126c.144-.482.311-.795.479-.94.191-.144.503-.24.934-.24h2.227c.383 0 .598.193.598.602 0 .12-.024.24-.047.385a3.43 3.43 0 0 1-.168.602l-5.771 18.605c-.144.482-.312.795-.503.939-.192.144-.503.24-.91.24h-2.059c-.455 0-.767-.072-.958-.24-.192-.169-.359-.481-.455-.963l-3.712-15.524-3.688 15.5c-.119.482-.263.794-.455.963-.191.168-.527.24-.958.24h-2.059Zm30.771.65c-1.245 0-2.49-.145-3.688-.434-1.197-.289-2.131-.602-2.753-.962-.384-.217-.647-.458-.743-.674a1.702 1.702 0 0 1-.143-.674v-1.228c0-.505.191-.746.55-.746.144 0 .288.024.431.072.144.048.36.145.599.24.814.362 1.7.65 2.634.843.958.193 1.892.29 2.85.29 1.508 0 2.682-.266 3.496-.795.814-.53 1.245-1.3 1.245-2.287 0-.674-.215-1.227-.646-1.685-.431-.457-1.246-.866-2.419-1.251l-3.472-1.083c-1.748-.554-3.041-1.372-3.832-2.455-.79-1.06-1.197-2.239-1.197-3.49 0-1.011.216-1.902.647-2.672a6.172 6.172 0 0 1 1.724-1.974c.718-.553 1.532-.963 2.49-1.252.958-.288 1.964-.409 3.017-.409.527 0 1.078.024 1.605.097.551.072 1.053.168 1.556.264.479.12.934.241 1.365.386.431.144.767.288 1.006.433.335.192.575.385.718.602.144.192.216.457.216.794v1.131c0 .506-.192.77-.551.77-.191 0-.503-.096-.91-.289-1.365-.625-2.897-.938-4.597-.938-1.365 0-2.443.216-3.185.674-.743.457-1.126 1.155-1.126 2.142 0 .674.24 1.251.719 1.709.479.457 1.365.914 2.634 1.324l3.4 1.083c1.724.553 2.969 1.323 3.712 2.31.742.987 1.101 2.118 1.101 3.37 0 1.035-.215 1.974-.622 2.792a6.47 6.47 0 0 1-1.748 2.118c-.743.602-1.629 1.035-2.658 1.348a11.343 11.343 0 0 1-3.425.505Z"/><path fill="#F90" fill-rule="evenodd" d="M137.094 51.046C129.216 56.896 117.769 60 107.927 60c-13.793 0-26.221-5.127-35.608-13.647-.742-.674-.072-1.589.814-1.06 10.153 5.922 22.677 9.508 35.632 9.508 8.741 0 18.343-1.83 27.18-5.584 1.317-.602 2.442.866 1.149 1.83Z" clip-rule="evenodd"/><path fill="#F90" fill-rule="evenodd" d="M140.375 47.291c-1.006-1.3-6.657-.625-9.22-.313-.766.097-.886-.577-.191-1.083 4.502-3.177 11.901-2.262 12.763-1.203.862 1.083-.239 8.52-4.454 12.083-.646.553-1.269.264-.982-.458.958-2.383 3.09-7.75 2.084-9.026Z" clip-rule="evenodd"/></svg>