<svg xmlns="http://www.w3.org/2000/svg" width="216" height="60" fill="none"><path fill="#000" d="M90.578 44.977c-2.344 0-4.606-.854-5.938-3.107h-.773v2.466h-5.331V15h5.33v10.672h.774c1.369-2.336 3.927-3.237 6.236-3.237 5.759 0 9.651 4.59 9.651 11.052 0 6.463-4.272 11.479-9.949 11.479v.012-.001Zm-1.154-4.755c3.285 0 5.629-2.68 5.629-6.51 0-3.83-2.392-6.51-5.629-6.51-3.236 0-5.545 2.55-5.545 6.51 0 3.961 2.344 6.51 5.545 6.51Zm20.955 4.755c-4.093 0-7.425-2.466-7.425-6.51s3.665-6.297 8.104-6.76l6.272-.64v-1.185c0-1.826-1.5-3.107-4.141-3.107s-3.975 1.102-4.438 2.762h-5.117c.511-4.043 3.879-7.102 9.555-7.102s9.091 2.632 9.091 7.779v10.375c0 1.317.131 3.143.214 3.652v.084h-5.117c-.047-.724-.047-1.4-.047-2.123h-.774c-1.321 2.123-3.629 2.763-6.188 2.763l.012.012h-.001Zm1.453-3.996c3.498 0 5.509-2.633 5.509-5.312v-1.067l-4.701.558c-2.903.343-4.308 1.186-4.308 3.059 0 1.873 1.452 2.762 3.499 2.762h.001Zm23.264 3.996c-5.379 0-9.223-2.68-9.818-6.89h5.248c.595 1.873 2.559 2.68 4.606 2.68 2.047 0 3.796-.89 3.796-2.466 0-1.577-1.619-2.004-3.843-2.384l-2.261-.38c-4.272-.723-6.914-2.514-6.914-6.331 0-3.818 3.664-6.76 8.746-6.76 5.082 0 8.235 2.3 9.128 6.297h-5.117c-.595-1.576-2.178-2.205-3.975-2.205-1.797 0-3.582.936-3.582 2.253 0 1.316 1.107 1.79 3.416 2.17l2.261.38c4.141.675 7.294 2.383 7.294 6.509s-3.76 7.15-9.008 7.15l.024-.024h-.001Zm22.36 0c-6.57 0-10.924-4.471-10.924-11.313 0-6.841 4.605-11.23 10.972-11.23 6.366 0 10.496 4.934 10.496 11.443v.937h-16.255c.262 3.533 2.737 5.609 5.724 5.609s3.974-.855 4.7-2.337h5.462c-1.106 3.997-5.082 6.89-10.162 6.89h-.013Zm5.331-13.684c-.428-2.846-2.689-4.506-5.33-4.506-2.642 0-5.117 1.613-5.629 4.506H162.8h-.013Z"/><path fill="#00F" d="M50.285 44.349c-.857 0-1.285-.427-1.285-1.28V24.355c0-.854.429-1.28 1.285-1.28h18.778c.857 0 1.284.427 1.284 1.28v18.712c0 .854-.428 1.28-1.284 1.28H50.285Z"/></svg>