<svg xmlns="http://www.w3.org/2000/svg" width="216" height="60" fill="none"><path fill="#514AA4" d="M65.708 38.415H57V15h8.697c2.4 0 4.467.469 6.2 1.406 1.741.93 3.083 2.272 4.026 4.025.944 1.745 1.415 3.834 1.415 6.265 0 2.439-.471 4.535-1.415 6.288a9.64 9.64 0 0 1-4.014 4.036c-1.741.93-3.808 1.395-6.2 1.395Zm-3.014-4.825h2.796c1.319 0 2.435-.221 3.347-.663.92-.45 1.614-1.178 2.082-2.184.476-1.014.714-2.363.714-4.047 0-1.685-.238-3.026-.714-4.024-.475-1.007-1.177-1.73-2.105-2.173-.92-.45-2.055-.674-3.405-.674h-2.715V33.59Zm25.376 5.156c-1.848 0-3.443-.362-4.785-1.086a7.534 7.534 0 0 1-3.083-3.121c-.714-1.357-1.07-2.969-1.07-4.836 0-1.814.36-3.4 1.081-4.756a7.78 7.78 0 0 1 3.049-3.179c1.31-.762 2.856-1.143 4.635-1.143 1.258 0 2.408.194 3.451.583a7.423 7.423 0 0 1 2.704 1.727c.76.762 1.35 1.703 1.771 2.823.422 1.113.633 2.39.633 3.83v1.395H81.1v-3.247h10.123a3.134 3.134 0 0 0-.426-1.589 2.883 2.883 0 0 0-1.139-1.086c-.475-.267-1.023-.4-1.644-.4-.63 0-1.193.14-1.692.423a3.167 3.167 0 0 0-1.645 2.744v3.304c0 .716.142 1.345.426 1.886.284.534.686.95 1.208 1.246.522.298 1.143.446 1.864.446.498 0 .95-.068 1.357-.205.406-.138.755-.34 1.047-.606a2.5 2.5 0 0 0 .656-.984l5.165.996c-.333.691-.985 1.655-1.415 2.16-.721.846-1.668 1.505-2.842 1.978-1.173.465-2.53.697-4.072.697Zm18.666 0c-1.848 0-3.443-.362-4.785-1.086a7.531 7.531 0 0 1-3.083-3.121c-.713-1.357-1.07-2.969-1.07-4.836 0-1.814.36-3.4 1.081-4.756a7.777 7.777 0 0 1 3.049-3.179c1.311-.762 2.856-1.143 4.636-1.143 1.257 0 2.408.194 3.451.583a7.42 7.42 0 0 1 2.703 1.727c.759.762 1.35 1.703 1.772 2.823.421 1.113.632 2.39.632 3.83v1.395H99.765v-3.247h10.123a3.128 3.128 0 0 0-.425-1.589 2.884 2.884 0 0 0-1.139-1.086c-.476-.267-1.024-.4-1.645-.4-.629 0-1.193.14-1.691.423a3.158 3.158 0 0 0-1.645 2.744v3.304c0 .716.142 1.345.425 1.886.284.534.687.95 1.208 1.246.522.298 1.143.446 1.864.446a4.23 4.23 0 0 0 1.357-.205c.407-.138.756-.34 1.047-.606a2.51 2.51 0 0 0 .656-.984l5.165.996c-.671 1.115-.76 1.39-1.415 2.16-.721.846-1.668 1.505-2.841 1.978-1.174.465-2.531.697-4.073.697ZM117.143 45V20.854h5.568v3.006h.172c.23-.533.556-1.047.978-1.543.43-.495.974-.9 1.634-1.212.667-.32 1.464-.48 2.392-.48 1.227 0 2.374.32 3.44.96 1.074.64 1.94 1.628 2.6 2.962.659 1.333.989 3.033.989 5.099 0 1.989-.318 3.654-.955 4.996-.629 1.341-1.48 2.347-2.554 3.018-1.066.67-2.25 1.006-3.554 1.006-.89 0-1.661-.145-2.312-.434a5.02 5.02 0 0 1-1.645-1.144 5.476 5.476 0 0 1-1.013-1.52h-.115V45h-5.625Zm5.51-15.366c0 .945.127 1.768.38 2.47.261.7.632 1.246 1.116 1.635.49.38 1.077.571 1.76.571.69 0 1.277-.19 1.76-.571.483-.39.847-.934 1.093-1.635.253-.702.379-1.525.379-2.47 0-.945-.126-1.764-.379-2.458-.246-.693-.61-1.23-1.093-1.612-.476-.381-1.062-.572-1.76-.572-.691 0-1.277.187-1.76.56-.484.374-.855.908-1.116 1.601-.253.694-.38 1.52-.38 2.481ZM142.71 15l4.302 7.397h.184L152.397 15h6.373l-7.109 11.707L159 38.415h-6.534l-5.27-7.477h-.184l-4.417 7.477h-7.341l8.157-11.708L135.438 15h7.272Z"/></svg>