<svg xmlns="http://www.w3.org/2000/svg" width="253" height="24" fill="none"><g clip-path="url(#a)"><path fill="#fff" d="M236.641 23.606V5.32h-6.869c-1.288 0-2.373-.44-3.256-1.32a4.481 4.481 0 0 1-1.323-3.251h27.475c0 1.286-.454 2.37-1.36 3.25-.906.88-1.98 1.321-3.219 1.321h-6.869v18.286h-4.579Zm-38.935 0V5.32L193.127.75h6.869l16.028 16v-16h4.579v22.857h-4.579L202.285 9.892v13.714h-4.579Z"/><path fill="#09E2AB" d="M165.659 23.606c-1.288 0-2.372-.44-3.256-1.321a4.493 4.493 0 0 1-1.323-3.25h27.475c0 1.285-.454 2.369-1.358 3.25-.908.881-1.982 1.321-3.22 1.321h-18.318Zm0-9.143c-1.288 0-2.372-.44-3.256-1.32a4.493 4.493 0 0 1-1.323-3.25h27.475c0 1.285-.454 2.368-1.358 3.25-.908.88-1.982 1.32-3.22 1.32h-18.318Zm0-9.143c-1.288 0-2.372-.44-3.256-1.32A4.493 4.493 0 0 1 161.08.75h27.475c0 1.285-.454 2.368-1.358 3.25-.908.88-1.982 1.32-3.22 1.32h-18.318Z"/><path fill="#fff" d="M129.033 23.606V.75h4.579v9.143h18.316c0 1.286-.453 2.369-1.36 3.25-.905.88-1.979 1.321-3.219 1.321h-13.737v9.143h-4.579Zm22.895 0V.75h4.58v22.857h-4.58Zm-54.961 0c0-1.262.442-2.332 1.323-3.214.907-.905 1.992-1.357 3.256-1.357h18.317v-4.572H96.967V.75h27.475c0 1.286-.453 2.37-1.359 3.25-.905.88-1.98 1.321-3.22 1.321h-18.317v4.572h22.896v13.714H96.967Z"/><path fill="#09E2AB" d="M69.5 23.606c-1.288 0-2.374-.44-3.255-1.321a4.493 4.493 0 0 1-1.325-3.25h27.475c0 1.285-.452 2.369-1.358 3.25-.907.881-1.98 1.321-3.22 1.321H69.5Zm0-9.143c-1.288 0-2.374-.44-3.255-1.32a4.496 4.496 0 0 1-1.325-3.251h27.475c0 1.286-.452 2.369-1.358 3.25-.907.88-1.98 1.321-3.22 1.321H69.5Zm0-9.143c-1.288 0-2.374-.44-3.255-1.32A4.493 4.493 0 0 1 64.92.748h27.475c0 1.286-.452 2.37-1.358 3.25-.907.88-1.98 1.321-3.22 1.321H69.5Z"/><path fill="#fff" d="M32.855 23.606V9.892h20.607a2.265 2.265 0 0 0 2.123-1.407c.113-.279.17-.578.166-.879V5.32H37.436c-1.288 0-2.373-.44-3.256-1.32A4.495 4.495 0 0 1 32.855.748h27.476v9.143c0 1.286-.454 2.369-1.36 3.25-.906.88-1.98 1.321-3.22 1.321h-4.579l9.159 9.143h-6.87l-9.157-9.143h-6.87v9.143h-4.578Zm-32.047 0V9.892h20.606a2.266 2.266 0 0 0 2.123-1.407c.114-.279.17-.578.167-.879V5.32H.808V.75h27.475v9.143c0 1.286-.453 2.369-1.36 3.25-.906.88-1.98 1.321-3.219 1.321H5.387v9.143H.808Z"/></g><defs><clipPath id="a"><path fill="#fff" d="M0 0h253v24H0z"/></clipPath></defs></svg>