<svg xmlns="http://www.w3.org/2000/svg" width="216" height="60" fill="none"><path fill="#212125" d="M104.441 5.05h10.066c-.26.788-.724 1.251-1.429 1.66a1.49 1.49 0 0 1-.718.182 1848.068 1848.068 0 0 1-.347 0h-.192l-.518-.002h-.543l-1.027-.003-1.169-.002c-.801 0-1.603-.003-2.404-.005v1.831h8.249v5.591h-10.508c.26-.787.983-1.334 1.694-1.695.389-.18.713-.22 1.137-.213h.195c.174 0 .349.001.523.003l.548.002c.346 0 .691.003 1.037.005.393.003.787.004 1.18.005.809.003 1.618.008 2.426.013v-1.88h-8.2V5.049ZM77.078 29.114c.838.7 1.411 1.656 1.535 2.753.043.574.028 1.131-.148 1.683l-.054.175a4.058 4.058 0 0 1-1.995 2.349c-.978.48-2.267.58-3.303.233a4.046 4.046 0 0 1-1.375-.828 74.925 74.925 0 0 0-.127-.115c-.443-.424-.72-.903-.953-1.468l-.045-.101c-.317-.77-.302-1.786-.053-2.571l.049-.169c.328-1.036 1.055-1.84 2.007-2.345 1.386-.667 3.228-.566 4.462.404Z"/><path fill="#222226" d="M86.715 28.404h1.227a2352.328 2352.328 0 0 1 1.52 4.575l.175.525.053.158.047.144.042.126c.03.112.03.112.03.31h.097l.015-.165c.033-.263.112-.507.194-.758l.049-.153.157-.488.108-.337c.212-.665.43-1.328.65-1.99.125-.374.24-.75.349-1.13.21-.732.21-.732.295-.817a6.95 6.95 0 0 1 .317-.005h.194l.204.002h.206l.503.003a3.32 3.32 0 0 1-.178.685l-.041.117-.09.254-.248.71-.054.156c-.147.421-.291.843-.436 1.266l-.033.099-.3.882c-.267.783-.538 1.564-.816 2.343-.172.483-.338.969-.504 1.454h-1.228c-.219-.608-.424-1.22-.63-1.834-.293-.874-.586-1.749-.892-2.62l-.036-.101c-.116-.33-.235-.66-.357-.987l-.03.09-.381 1.132-.062.182c-.244.724-.488 1.447-.737 2.169a72.86 72.86 0 0 0-.302.898l-.034.106-.166.506-.06.18-.051.16c-.043.119-.043.119-.092.168a4.894 4.894 0 0 1-.263.005h-.16l-.17-.002a1597.01 1597.01 0 0 0-.586-.003c-.736-2.063-.736-2.063-.992-2.852a40.005 40.005 0 0 0-.376-1.087 61.273 61.273 0 0 1-.55-1.617 50.185 50.185 0 0 0-.396-1.159l-.202-.567-.073-.205-.065-.183c-.046-.147-.046-.147-.046-.296h1.473c.219.552.219.552.282.77.09.302.185.603.28.903.152.476.302.951.452 1.428l.204.65.176.559.173.55a126.137 126.137 0 0 1 .156.495l.051.164c.031.118.031.118.092.171l.435-1.339.034-.101 1.397-4.3Z"/><path fill="#232327" d="M106.553 28.404c4.886 0 4.886 0 5.781.82.425.456.622 1.06.614 1.675l-.001.112a2.485 2.485 0 0 1-.109.757l-.038.121c-.212.599-.61.95-1.141 1.265-.16.077-.321.142-.491.198.146.269.311.514.491.76a33 33 0 0 1 .172.238l.087.12c.203.282.4.567.599.852l.243.346.083.117.159.225c.18.255.18.255.18.31-1.386.117-1.386.117-1.742-.06-.179-.158-.275-.359-.37-.576-.082-.176-.197-.328-.31-.486l-.133-.196c-.17-.25-.342-.499-.514-.747l-.09-.129a7.546 7.546 0 0 0-.084-.121l-.074-.107-.072-.101-.059-.11c-.136-.136-.286-.118-.467-.118l-.1-.003-.365-.004-.825-.012v2.77h-1.424v-7.916Z"/><path fill="#222226" d="M61.033 28.404c4.535 0 4.535 0 5.402.84.552.612.708 1.27.7 2.082-.048.701-.347 1.277-.846 1.759-.67.532-1.47.722-2.308.717h-.122l-.444-.002-1.007-.003v2.523h-1.375v-7.916Z"/><path fill="#202024" d="M61.033 5.05h11.589c-.292.882-.76 1.37-1.571 1.78-1.041.35-2.193.082-3.29.1v7.372h-1.817l-.05-7.323c-.132-.067-.234-.055-.382-.054h-.79c-.217-.001-.434-.002-.65 0l-.528-.001c-.098 0-.196 0-.294.002a2.186 2.186 0 0 1-1.542-.643c-.268-.3-.675-.808-.675-1.234Zm84.655 3.66h10.017v5.642h-1.767v-3.76h-6.482v3.76h-1.768V8.71Zm-20.623-3.66h1.767v7.47h7.955c-.092.65-.414 1.136-.919 1.544-.442.303-.815.343-1.339.332h-.25c-.22 0-.441-.002-.662-.004-.208-.003-.416-.003-.624-.003-.606-.002-1.213-.008-1.819-.013l-4.109-.024V5.049Z"/><path fill="#242428" d="M96.927 28.398h1.175l.39.001a708.827 708.827 0 0 1 1.972.002l2.16.003v1.286h-4.468v2.029h3.977v1.237l-3.928.05-.05 2.077h4.518v1.287h-5.892l-.003-2.812V31.84a1305.42 1305.42 0 0 1-.003-2.767v-.489c.008-.176.008-.176.152-.185Z"/><path fill="#FEFEFE" d="M76.086 30.087c.495.403.942 1.05 1.045 1.702.062.918-.034 1.796-.618 2.546-.467.495-1.11.828-1.793.864-.807.017-1.46-.179-2.061-.746-.633-.678-.8-1.446-.788-2.348.013-.315.09-.59.21-.881l.053-.132c.267-.605.776-1.065 1.378-1.318.08-.03.16-.057.24-.084l.18-.062a2.736 2.736 0 0 1 2.154.459Z"/><path fill="#252529" d="m133.683 28.35.15.001.15.002.117.001c.55 1.077 1.045 2.184 1.54 3.287.235.523.475 1.043.719 1.562.344.735.681 1.473 1.012 2.215l.192.423.069.149.059.129a.356.356 0 0 1 .042.201h-.638l-.301-.646-.102-.22-.148-.317-.045-.097c-.131-.281-.258-.564-.386-.847l-4.616-.05-.098.297a7.162 7.162 0 0 1-.087.201l-.05.11-.053.117-.056.121-.115.253-.177.388-.113.246-.053.118c-.125.271-.125.271-.18.326a6.422 6.422 0 0 1-.298.004l-.164-.002-.127-.002c.031-.22.115-.405.211-.603l.049-.106.107-.224.287-.605.059-.125c.185-.394.364-.79.542-1.188.264-.588.534-1.173.807-1.756.25-.531.494-1.064.734-1.6.201-.447.402-.894.61-1.338l.055-.116c.143-.304.143-.304.296-.31Zm-17.261.054h.639c.14.349.273.7.399 1.054l.057.16c.169.475.331.952.493 1.428.137.401.279.8.424 1.198.158.436.307.876.457 1.316.147.432.299.862.457 1.29l.045.125.04.108c.033.098.059.196.083.297l.416-1.275.194-.593c.386-1.181.767-2.365 1.144-3.55l.15-.469.073-.232.111-.348.033-.104a1.52 1.52 0 0 1 .187-.405c.148-.02.293-.007.442 0 .151.367.28.738.403 1.116l.058.18.157.484.098.301c.335 1.033.666 2.066.992 3.1.179.568.362 1.133.551 1.696.115-.117.143-.205.197-.36l.059-.167.063-.18.066-.19c.169-.483.335-.969.501-1.454.385-1.13.78-2.258 1.182-3.382l.041-.115.116-.324.066-.185c.066-.176.138-.348.213-.52h.589a3.006 3.006 0 0 1-.166.639l-.036.1-.12.33-.085.236-.183.505-.299.826-.051.141-.102.282-.152.423c-.192.532-.383 1.064-.573 1.598-.119.335-.244.669-.369 1.003a62.226 62.226 0 0 0-.663 1.883h-.54a803.249 803.249 0 0 1-2.016-6.046l-.092-.27-.041-.121-.036-.103c-.025-.09-.025-.09-.025-.239h-.098l-.034.176c-.077.348-.196.684-.31 1.021l-.077.23-.126.379c-.119.355-.236.71-.353 1.066a379.977 379.977 0 0 1-1.31 3.907h-.54l-.149-.422-.133-.374-.332-.938a178.69 178.69 0 0 0-.682-1.9c-.309-.847-.612-1.696-.916-2.544l-.296-.822-.064-.176a36.559 36.559 0 0 0-.112-.307l-.047-.131-.04-.11c-.028-.094-.028-.094-.028-.242Z"/><path fill="#212125" d="M83.18 5h10.556c-.189.7-.496 1.235-1.12 1.619-.31.176-.53.267-.889.268l-.18.002h-.197a361.24 361.24 0 0 0-.892.003h-.235l-1.108.003-1.276.003a246.354 246.354 0 0 1-1.577.005h-.555l-.298.002c-.64-.003-1.122-.22-1.59-.66-.34-.367-.52-.762-.64-1.245Z"/><path fill="#202024" d="M83.18 12.471h10.556c-.217.73-.55 1.307-1.227 1.683-.415.194-.786.226-1.24.222l-.205.001H89.93l-.977-.002c-.375-.002-.75-.002-1.126-.001a303.19 303.19 0 0 1-2.092-.002h-.292c-.562-.004-.93-.131-1.379-.466l-.153-.111c-.356-.343-.572-.758-.73-1.225v-.099Zm62.214-7.421h10.557c-.131.592-.408 1.136-.92 1.494-.332.211-.635.391-1.037.393l-.181.001h-.199a367.512 367.512 0 0 0-.9.003l-.237.001-1.117.002c-.429 0-.858.002-1.287.004a250.512 250.512 0 0 1-1.591.004 62.538 62.538 0 0 1-.764.002c-.395.004-.703-.02-1.048-.222l-.127-.072a2.594 2.594 0 0 1-.87-.918l-.05-.087a2.595 2.595 0 0 1-.229-.606ZM83.18 8.71h10.556c-.224.755-.575 1.272-1.252 1.672a1.54 1.54 0 0 1-.724.174l-.184.001a88755.909 88755.909 0 0 0-.412.002l-.575.003h-.36c-.376.002-.751.003-1.127.003-.433 0-.865.003-1.298.005l-1.006.004c-.2 0-.4 0-.6.002-.187.002-.376.002-.564.001l-.206.001c-.657.01-1.125-.202-1.598-.66-.282-.303-.65-.765-.65-1.207Z"/><path fill="#242428" d="M101.249 50.422c2.477 0 2.477 0 3.349.603.403.406.644.898.654 1.471l-.001.14v.146c-.009.377-.071.68-.27 1.005l-.066.109c-.427.627-.933.847-1.652 1.029h-2.014v-4.503Z"/><path fill="#232327" d="m152.268 50.422 1.09-.012.339-.006c.632-.006 1.263-.008 1.777.421.305.331.447.682.441 1.129a1.45 1.45 0 0 1-.503 1.011c-.175.14-.317.228-.541.228a8.7 8.7 0 0 0 .592.872c.537.692.537.692.537.86-.728.108-.728.108-.97-.06-.218-.229-.367-.517-.513-.795-.216-.446-.216-.446-.601-.718-.296-.049-.556-.027-.862-.01v1.583h-.786v-4.503Zm-79.597 0 1.145-.012.358-.006.286-.001.146-.003c.508 0 .988.15 1.355.517.32.417.353.871.295 1.385-.101.341-.349.598-.639.792a1.56 1.56 0 0 1-.344.099c.156.29.34.55.538.813.21.283.41.566.592.87-.775.108-.775.108-1.022-.063-.162-.17-.276-.37-.39-.575-.1-.173-.222-.33-.34-.492-.212-.29-.212-.29-.212-.405h-.982v1.584h-.786v-4.503Z"/><path fill="#26262A" d="M113.869 50.422c.737 0 .737 0 .991.247.067.087.067.087.116.165.107.162.22.317.337.471l.226.304c.223.302.456.596.687.891l.687.89.05-2.968h.785v4.503c-.687 0-.687 0-.881-.164a4.917 4.917 0 0 1-.15-.226 34.418 34.418 0 0 0-.172-.247l-.086-.128a10.902 10.902 0 0 0-.429-.571l-.171-.221-.359-.465-.092-.12-.174-.224-.081-.104a4.117 4.117 0 0 0-.069-.09c-.128-.168-.254-.338-.38-.508l-.049 3.068h-.786v-4.503Z"/><path fill="#232327" d="M131.694 50.422a3 3 0 0 1 .374-.01l.105.003.257.007c.391.85.76 1.71 1.127 2.57l.342.794.09.208a39.24 39.24 0 0 1 .244.562l.066.151c.046.119.046.119.046.218h-.834c-.442-.858-.442-.858-.442-1.089h-2.112l-.147.445c-.08.216-.163.43-.246.644h-.834c.11-.334.11-.334.176-.485l.045-.103.049-.11.051-.12.17-.385.117-.27.184-.42a196.38 196.38 0 0 0 .622-1.43l.117-.27.163-.375.048-.112c.066-.15.131-.286.222-.423Z"/><path fill="#FDFDFD" d="M133.805 29.096c.143.173.231.365.322.568l.05.11.162.358.113.25a214.323 214.323 0 0 1 .384.85l.295.66.071.16c.228.513.445 1.03.665 1.547h-4.075c.098-.296.196-.569.327-.848l.053-.114.111-.24.297-.642.061-.133c.246-.535.481-1.074.716-1.613l.047-.108.085-.197c.093-.211.2-.409.316-.608Z"/><path fill="#242428" d="M95.75 50.422h3.339v.693h-2.504v1.187h2.21v.693h-2.21v1.187h2.504v.743h-3.34v-4.503Z"/><path fill="#FCFCFC" d="m107.927 29.69 1.145-.01.358-.003.286-.001.146-.003c.52 0 .968.097 1.355.463.295.328.325.607.313 1.036-.02.317-.132.551-.345.784-.597.515-1.413.43-2.143.418l-1.115-.012V29.69Z"/><path fill="#232327" d="M146.719 50.422h3.29v.693l-2.455.05-.049 1.137h2.259v.693h-2.259v1.187h2.553v.743h-3.339v-4.503Z"/><path fill="#222226" d="M67.171 50.422h3.29v.693h-2.504v1.187h2.21v.693h-2.21v1.187h2.553v.743h-3.339v-4.503Z"/><path fill="#FCFCFC" d="m62.408 29.69.764-.006.236-.003c1.368-.005 1.368-.005 1.897.405.325.337.416.668.414 1.13-.01.367-.108.628-.358.9-.577.507-1.294.47-2.01.456l-.943-.012v-2.87Z"/><path fill="#242428" d="m123.051 50.818.099.148-.393.544a2.9 2.9 0 0 1-.418-.197c-.323-.165-.726-.243-1.083-.167-.22.087-.22.087-.365.266-.034.203-.034.203 0 .395.174.221.353.303.617.375l.211.062.203.058c.513.153 1.012.304 1.285.8.151.333.134.703.013 1.043a1.259 1.259 0 0 1-.715.7c-.68.251-1.406.183-2.056-.118-.265-.152-.452-.267-.589-.545l.392-.494c.15.075.281.153.421.244.37.224.813.374 1.249.3.22-.078.36-.149.491-.346.029-.268.029-.268-.067-.508-.311-.208-.654-.295-1.013-.38-.517-.125-.924-.286-1.228-.745-.145-.299-.143-.638-.072-.96.138-.397.394-.627.751-.82.738-.311 1.631-.083 2.267.345Z"/><path fill="#29292D" d="M150.795 28.453h.589v7.323H156v.594h-5.205v-7.917Z"/><path fill="#232327" d="m64.968 50.935.092.08c-.073.16-.163.294-.27.434l-.09.12-.082.09h-.098v-.099a2200.404 2200.404 0 0 0-.318-.161l-.127-.065-.128-.065a1.499 1.499 0 0 0-1.095-.056c-.121.06-.233.124-.345.199l-.139.09a1.562 1.562 0 0 0-.47 1.131c.008.436.107.853.415 1.175.354.288.713.42 1.167.397.43-.062.762-.234 1.089-.517.158.07.261.153.38.278l.092.095.068.072c-.151.359-.508.541-.85.686a2.636 2.636 0 0 1-1.9.007c-.517-.269-.883-.608-1.13-1.138-.018-.04-.038-.078-.058-.119-.228-.524-.213-1.141-.042-1.681.282-.69.746-1.134 1.417-1.43.85-.282 1.733-.05 2.422.477Z"/><path fill="#242428" d="M141.662 28.453h.54v7.323h4.665v.594h-5.205v-7.917Z"/><path fill="#222226" d="M87.108 50.422h3.29v.742h-2.505v1.188h2.21v.742h-2.21v1.83h-.785v-4.502Z"/><path fill="#FEFEFE" d="M102.084 51.164c1.482 0 1.482 0 1.921.39.317.33.446.659.461 1.116-.014.463-.129.84-.467 1.166-.665.463-.954.346-1.915.346v-3.018Z"/><path fill="#29292C" d="M78.17 50.422h3.585v.742H80.38v3.76h-.834v-3.76H78.17v-.742Z"/><path fill="#26262A" d="M125.016 50.422h3.633v.742h-1.424v3.76h-.785v-3.71h-1.424v-.792Z"/><path fill="#242428" d="M136.359 50.422h.785v3.76h2.357v.743h-3.142v-4.503Z"/><path fill="#232327" d="M141.564 50.422h.785v3.76h2.308v.743h-3.093v-4.503Z"/><path fill="#242428" d="M110.677 50.422h.786v4.503h-.786v-4.503Zm-18.119 0h.786v4.503h-.786v-4.503Z"/><path fill="#212125" d="M83.867 50.422h.785v4.503h-.785v-4.503Z"/><path fill="#F9F9F9" d="m153.005 51.164.635-.01.198-.003c.75-.006.75-.006 1.014.233.174.205.232.346.229.617-.023.167-.106.271-.21.4l-.068.087c-.211.164-.457.172-.715.17h-.173l-.217-.003-.693-.006v-1.485Zm-79.548 0 .632-.012.196-.006c.424-.004.778.049 1.117.318.106.228.103.443.068.69a.903.903 0 0 1-.42.454c-.28.094-.588.06-.878.053l-.715-.012v-1.485Z"/><path fill="#F7F7F8" d="M132.037 51.412c.154.077.185.231.248.384l.042.102.089.214.136.327.086.208.041.099a.949.949 0 0 1 .095.397h-1.424a2.94 2.94 0 0 1 .181-.583l.039-.095.082-.198.125-.304c.204-.495.204-.495.26-.551Z"/></svg>